<?xml version="1.0" encoding="utf-8"?>
<!-- Designed by Vexels.com - 2020 All Rights Reserved - https://vexels.com/terms-and-conditions/  -->
<svg version="1.1" id="Layer_1" xmlns="http://www.w3.org/2000/svg" xmlns:xlink="http://www.w3.org/1999/xlink" x="0px" y="0px"
	 viewBox="0 0 1200 1200" enable-background="new 0 0 1200 1200" xml:space="preserve">
<g>
	<path fill="#ED2F2F" d="M716.472,1085.236V784.891c0-10.939-8.899-19.844-19.849-19.844H514.704
		c-10.939,0-19.838,8.904-19.838,19.844v300.345h-17.412v0.002h250.682v-0.002H716.472z"/>
	<path fill="#FF7F29" d="M1141.903,566.142c-0.487,0.508-1.051,0.888-1.567,1.349
		C1140.852,567.027,1141.419,566.648,1141.903,566.142z"/>
	<path fill="#FF7F29" d="M56.053,563.741c-9.794-12.685-7.459-30.913,5.237-40.707l520.998-402.226
		c5.215-4.03,11.472-6.045,17.729-6.045c-6.257,0-12.515,2.015-17.729,6.045L61.29,523.033
		C48.594,532.828,46.259,551.056,56.053,563.741c5.713,7.408,14.306,11.285,22.989,11.285l0,0
		C70.359,575.026,61.767,571.149,56.053,563.741z"/>
	<path fill="#FF7F29" d="M1148.212,556.003c-0.368,1.001-0.881,1.958-1.366,2.926
		C1147.327,557.958,1147.86,557.006,1148.212,556.003z"/>
	<path fill="#FF7F29" d="M1101.989,567.965l-73.44-56.694L615.668,201.687c-9.27-6.952-22.017-6.955-31.293-0.006L183.582,501.94
		l-2.857,2.206v552.072c0,16.027,12.994,29.02,29.02,29.02h2.857h256.101h6.96h1.791v-0.002h-17.412V784.891
		c0-30.142,24.52-54.667,54.662-54.667h181.919c30.142,0,54.673,24.525,54.673,54.667v300.345h-23.159v0.002h3.148H999.53
		c16.029,0,29.02-12.992,29.02-29.02V511.271l74.749,57.707c10.265,7.931,24.151,7.848,34.263,0.817
		C1127.059,576.908,1112.416,576.017,1101.989,567.965z M601.084,601.342c-41.268,0-74.726-33.456-74.726-74.726
		s33.458-74.727,74.726-74.727c41.271,0,74.726,33.457,74.726,74.727S642.355,601.342,601.084,601.342z"/>
	<path fill="#FF7F29" d="M1006.943,421.271c2.364,2.47,9.25,7.473,14.354,11.204
		C1016.879,429.213,1015.326,427.977,1006.943,421.271z"/>
	<polygon fill="#FF7F29" points="1137.383,521.971 1091.158,486.285 1137.386,521.974 	"/>
	<path fill="#FF7F29" d="M1145.791,561.101c-0.524,0.857-1.241,1.631-1.865,2.447c0.592-0.772,1.264-1.447,1.791-2.296
		C1145.749,561.204,1145.763,561.15,1145.791,561.101z"/>
	<path fill="#08175B" d="M1146.846,558.929c0.485-0.968,0.998-1.925,1.366-2.926c4.26-11.575,0.833-25.033-9.454-32.969l-1.372-1.06
		l-46.228-35.688l-66.502-51.339c-0.938-0.701-2.109-1.559-3.358-2.471c-5.104-3.731-11.991-8.734-14.354-11.204
		c0-0.001-0.006-0.002-0.006-0.004l-389.19-300.46c-5.215-4.03-11.472-6.045-17.729-6.045c-6.257,0-12.515,2.015-17.729,6.045
		L61.29,523.033c-12.696,9.794-15.031,28.022-5.237,40.707c5.713,7.408,14.306,11.285,22.989,11.285l0,0
		c6.189,0,12.435-1.972,17.707-6.048l83.976-64.831l2.857-2.206l400.792-300.259c9.276-6.948,22.023-6.946,31.293,0.006
		l412.882,309.584l73.44,56.694c10.426,8.051,25.069,8.943,35.572,1.829c0.983-0.666,1.87-1.497,2.774-2.304
		c0.516-0.461,1.08-0.841,1.567-1.349c0.045-0.045,0.096-0.073,0.139-0.118c0.734-0.776,1.255-1.651,1.885-2.476
		c0.623-0.816,1.34-1.59,1.865-2.447C1146.219,560.402,1146.483,559.651,1146.846,558.929z"/>
	<circle fill="#08175B" cx="601.084" cy="526.615" r="74.726"/>
	<path fill="#08175B" d="M494.866,784.891c0-10.939,8.899-19.844,19.838-19.844h181.919c10.951,0,19.849,8.904,19.849,19.844
		v300.345h11.665h23.159V784.891c0-30.142-24.531-54.667-54.673-54.667H514.704c-30.142,0-54.662,24.525-54.662,54.667v300.345
		h17.412h17.412V784.891z"/>
</g>
</svg>
